<?xml version="1.0" encoding="UTF-8" standalone="no"?>
<!-- Created with Inkscape (http://www.inkscape.org/) -->

<svg
   version="1.0"
   id="svg2"
   sodipodi:version="0.32"
   inkscape:version="1.1 (c68e22c387, 2021-05-23)"
   sodipodi:docname="favicon.svg"
   inkscape:output_extension="org.inkscape.output.svg.inkscape"
   width="512.9024"
   height="340"
   inkscape:export-filename="C:\Users\joshu\OneDrive\Desktop\DAD\JAVA\assignment-react\public\favicon.ico"
   inkscape:export-xdpi="95.8311"
   inkscape:export-ydpi="95.8311"
   xmlns:inkscape="http://www.inkscape.org/namespaces/inkscape"
   xmlns:sodipodi="http://sodipodi.sourceforge.net/DTD/sodipodi-0.dtd"
   xmlns="http://www.w3.org/2000/svg"
   xmlns:svg="http://www.w3.org/2000/svg"
   xmlns:rdf="http://www.w3.org/1999/02/22-rdf-syntax-ns#"
   xmlns:cc="http://creativecommons.org/ns#"
   xmlns:dc="http://purl.org/dc/elements/1.1/">
  <g
     id="g1019"
     transform="rotate(90,256.06414,170.00001)">
    <path
       d="m 198.64562,254.28572 c 11.88648,0 21.52237,19.1878 21.52237,42.85716 0,23.66933 -9.63589,42.85714 -21.52237,42.85714 -11.88648,0 -21.52237,-19.1878 -21.52237,-42.85714 0,-23.66936 9.63589,-42.85715 21.52237,-42.85716 z"
       id="path2387"
       style="fill:#ffc5d9;fill-opacity:1;fill-rule:evenodd;stroke:none;stroke-width:4.29147;stroke-linecap:round;stroke-linejoin:round;stroke-miterlimit:4;stroke-dasharray:none;stroke-dashoffset:0;stroke-opacity:1" />
    <path
       d="m 199.03693,202.85714 c 11.88647,0 21.52237,19.1878 21.52237,42.85715 0,23.66934 -9.6359,42.85714 -21.52237,42.85714 -11.88647,0 -21.52236,-19.1878 -21.52236,-42.85714 0,-23.66936 9.63589,-42.85715 21.52236,-42.85715 z"
       id="path2389"
       style="fill:#ffc5d9;fill-opacity:1;fill-rule:evenodd;stroke:none;stroke-width:4.29147;stroke-linecap:round;stroke-linejoin:round;stroke-miterlimit:4;stroke-dasharray:none;stroke-dashoffset:0;stroke-opacity:1" />
    <path
       d="m 199.6239,151.14285 c 11.88648,0 21.52237,19.1878 21.52237,42.85715 0,23.66934 -9.63589,42.85714 -21.52237,42.85714 -11.88647,0 -21.52236,-19.1878 -21.52236,-42.85714 0,-23.66935 9.63589,-42.85715 21.52236,-42.85715 z"
       id="path2391"
       style="fill:#ffc5d9;fill-opacity:1;fill-rule:evenodd;stroke:none;stroke-width:4.29147;stroke-linecap:round;stroke-linejoin:round;stroke-miterlimit:4;stroke-dasharray:none;stroke-dashoffset:0;stroke-opacity:1" />
    <path
       d="m 200.01522,99.71428 c 11.88648,0 21.52237,19.1878 21.52237,42.85715 0,23.66934 -9.63589,42.85713 -21.52237,42.85713 -11.88647,0 -21.52237,-19.1878 -21.52237,-42.85714 0,-23.66935 9.6359,-42.85715 21.52237,-42.85714 z"
       id="path2393"
       style="fill:#ffc5d9;fill-opacity:1;fill-rule:evenodd;stroke:none;stroke-width:4.29147;stroke-linecap:round;stroke-linejoin:round;stroke-miterlimit:4;stroke-dasharray:none;stroke-dashoffset:0;stroke-opacity:1" />
    <path
       d="m 200.09349,51.428577 c 11.88647,0 21.52236,19.18779 21.52236,42.85714 0,23.669353 -9.63589,42.857153 -21.52236,42.857153 -11.88648,0 -21.52237,-19.1878 -21.52237,-42.857153 0,-23.66934 9.63589,-42.85714 21.52237,-42.85714 z"
       id="path2395"
       style="fill:#ffc5d9;fill-opacity:1;fill-rule:evenodd;stroke:none;stroke-width:4.29147;stroke-linecap:round;stroke-linejoin:round;stroke-miterlimit:4;stroke-dasharray:none;stroke-dashoffset:0;stroke-opacity:1" />
    <path
       d="m 200.48479,0 c 11.88648,0 21.52237,19.1878 21.52237,42.85714 0,23.66934 -9.63589,42.85715 -21.52237,42.85715 -11.88647,0 -21.52236,-19.18781 -21.52236,-42.85714 C 178.96243,19.1878 188.59832,0 200.48479,0 Z"
       id="path2397"
       style="fill:#ffc5d9;fill-opacity:1;fill-rule:evenodd;stroke:none;stroke-width:4.29147;stroke-linecap:round;stroke-linejoin:round;stroke-miterlimit:4;stroke-dasharray:none;stroke-dashoffset:0;stroke-opacity:1" />
    <path
       d="M 232.90633,293.82171 389.79248,181.24727 393.02055,168.98885 234.00389,50.749742 Z"
       id="path2422"
       style="fill:#ffcb85;fill-opacity:1;fill-rule:evenodd;stroke:#ffcb85;stroke-width:0.876912px;stroke-linecap:butt;stroke-linejoin:miter;stroke-opacity:1"
       sodipodi:nodetypes="ccccc" />
    <path
       style="fill:#ffc5d9;fill-opacity:1;fill-rule:evenodd;stroke:none;stroke-width:0.571981;stroke-linecap:round;stroke-linejoin:round;stroke-miterlimit:4;stroke-dasharray:none;stroke-dashoffset:0;stroke-opacity:1"
       d="m 73.217465,170.91451 c 0,81.72642 45.558505,148.0422 101.695625,148.0422 3.1163,0 6.19803,-0.22045 9.24316,-0.62054 V 23.4633 c -3.04513,-0.40009 -6.12686,-0.62054 -9.24316,-0.62054 -56.13712,0 -101.695625,66.34532 -101.695625,148.07175 z"
       id="path2407" />
  </g>
  <metadata
     id="metadata16">
    <rdf:RDF>
      <cc:Work
         rdf:about="">
        <dc:format>image/svg+xml</dc:format>
        <dc:type
           rdf:resource="http://purl.org/dc/dcmitype/StillImage" />
      </cc:Work>
    </rdf:RDF>
  </metadata>
  <sodipodi:namedview
     inkscape:pageshadow="2"
     inkscape:pageopacity="0.0"
     guidetolerance="10.0"
     gridtolerance="10.0"
     objecttolerance="10.0"
     borderopacity="1.0"
     bordercolor="#666666"
     pagecolor="#ffffff"
     id="base"
     showgrid="false"
     inkscape:zoom="0.46942014"
     inkscape:window-x="-9"
     inkscape:window-y="1121"
     inkscape:current-layer="g1019"
     showborder="false"
     inkscape:showpageshadow="false"
     inkscape:cx="512.33422"
     inkscape:cy="199.18191"
     inkscape:window-width="1920"
     inkscape:window-height="1001"
     inkscape:pagecheckerboard="1"
     inkscape:window-maximized="1"
     fit-margin-top="0"
     fit-margin-left="0"
     fit-margin-right="0"
     fit-margin-bottom="0" />
  <defs
     id="defs4">
    <inkscape:perspective
       sodipodi:type="inkscape:persp3d"
       inkscape:vp_x="0 : 286.18109 : 1"
       inkscape:vp_y="0 : 1000 : 0"
       inkscape:vp_z="744.09448 : 286.18109 : 1"
       inkscape:persp3d-origin="372.04724 : 110.78739 : 1"
       id="perspective18" />
  </defs>
</svg>
